<?xml version="1.0" standalone="no"?>
<!DOCTYPE svg PUBLIC "-//W3C//DTD SVG 20010904//EN"
 "http://www.w3.org/TR/2001/REC-SVG-20010904/DTD/svg10.dtd">
<svg version="1.0" xmlns="http://www.w3.org/2000/svg"
 width="700.000000pt" height="700.000000pt" viewBox="0 0 700.000000 700.000000"
 preserveAspectRatio="xMidYMid meet">
<metadata>
Created by potrace 1.11, written by Peter Selinger 2001-2013
</metadata>
<g transform="translate(0.000000,700.000000) scale(0.100000,-0.100000)"
fill="#000000" stroke="none">
<path d="M3278 6995 c-1 -1 -42 -5 -89 -9 -47 -4 -95 -8 -106 -10 -11 -3 -44
-7 -74 -11 -65 -8 -88 -11 -159 -25 -30 -6 -66 -14 -80 -16 -89 -17 -254 -63
-370 -101 -431 -144 -808 -356 -1160 -651 -387 -324 -741 -794 -934 -1242 -16
-36 -35 -78 -42 -95 -54 -120 -153 -432 -180 -570 -2 -11 -10 -54 -19 -95 -29
-147 -36 -200 -52 -370 -15 -164 -8 -592 12 -711 2 -13 6 -46 9 -74 9 -78 23
-156 51 -285 23 -107 88 -333 114 -395 5 -11 30 -75 55 -142 54 -140 181 -394
249 -501 26 -40 47 -76 47 -81 0 -5 3 -11 8 -13 4 -2 33 -41 64 -88 170 -255
432 -535 708 -755 92 -74 370 -265 386 -265 4 0 15 -6 23 -14 9 -7 82 -48 163
-89 369 -189 765 -311 1178 -362 245 -31 692 -26 907 9 21 4 52 8 68 10 189
24 492 108 745 207 131 51 423 194 467 229 14 11 30 20 35 20 5 0 14 5 21 10
7 6 67 47 134 91 235 156 493 382 665 583 34 39 64 73 68 76 17 13 181 236
245 335 213 327 386 729 471 1098 2 9 6 27 9 40 14 60 55 299 60 352 4 33 9
71 11 85 9 47 11 555 3 620 -4 36 -10 93 -14 127 -3 34 -8 72 -10 85 -3 13 -8
43 -11 68 -9 69 -70 336 -97 425 -232 762 -691 1402 -1331 1858 -71 50 -137
96 -147 102 -229 133 -459 255 -483 255 -3 0 -34 13 -69 29 -130 59 -394 141
-609 187 -40 8 -82 17 -93 20 -11 2 -45 7 -75 10 -30 3 -58 8 -61 9 -3 2 -35
7 -71 10 -35 4 -78 9 -94 11 -32 5 -540 14 -546 9z"/>
</g>
</svg>
